<svg xmlns="http://www.w3.org/2000/svg" x="513.3284" y="129.2071" width="119.3433" height="119.3714" viewBox="-55 146.95396423339844 499.9286804199219 500.0460205078125" preserveAspectRatio="none"><g transform="matrix(1 0 0 1 0 0)" class="icon14b485885-9a7c-42a0-ab4c-39a1d39ea276"><g><path d="M180.5,147c125.5,2.6,226.6,109.5,226.2,239.1c-0.2,59.5-21.4,113.8-56.4,155.5c45.7,56.6,86.3,94.4,91.3,96.4   c3.9,1.6,4.2,6.4,1.8,9c-39.1-10.3-78.2-20.7-116.8-32.8c-28.1-8.8-56-18.5-83.3-29.6c-24.1-9.7-48.5-19.8-69.8-35.1   c-34.3-24.6-58.3-62.9-55.1-107.1c3.2-43.6,31.8-78.7,73.5-87.3c15.3-3.1,30-2.8,44.4,1.1c-4.6-11.6-8.6-23.3-12.1-35   c-1.6-5.5-2.3-11.2-2.1-17c0-0.8,0-1.7,0-2.5c0-4.6-0.4-9.2-1.1-13.6c-2.8-17.2-17.4-29.6-34.3-29.6h-0.3   c-17.6,0-32.9,10.3-40.5,25.3c-0.9,1.8-3.4,1.8-4.4,0c-7.6-15-22.9-25.3-40.5-25.3c-0.8,0-1.6,0-2.4,0.1c-16.6,0.9-30.4,14-32.9,31   c0,0.2,0,0.3-0.1,0.5l0,0c0,0-16.4,104.4-16.4,147.1c0,38.1-3.5,123.3,67.2,172.9c2.7,1.9,0.7,6.3-2.4,5.4   C16.6,587.3-55,495-55,385.4C-55,252.2,50.9,144.4,180.5,147z"/><path d="M202.9,295.1c0,0-8,10.6-17.9,10.6c-6.9,0-12.8-5.1-15.8-8.2c-1.3-1.3-1.3-3.4,0-4.7c3-3.1,8.9-8.2,15.8-8.2   C194.9,284.5,202.9,295.1,202.9,295.1z"/><path d="M84.6,295.1c0,0,8-10.6,17.9-10.6c6.9,0,12.8,5.1,15.8,8.2c1.3,1.3,1.3,3.4,0,4.7c-3,3.1-8.9,8.2-15.8,8.2   C92.6,305.7,84.6,295.1,84.6,295.1z"/><path d="M151.7,320.2c0,0.3,0,0.6,0,0.9c0,8.4-8.5,15.3-8.5,15.3s-8.5-6.8-8.5-15.3c0-0.3,0-0.6,0-0.9   C135.5,309.7,151,309.7,151.7,320.2z"/></g></g></svg>