<svg xmlns="http://www.w3.org/2000/svg" x="473.5473" y="267.5651" width="198.9055" height="75.9464" viewBox="-3.4375 -29.5508 88.7501 33.8868" preserveAspectRatio="none"><g transform="matrix(1 0 0 1 0 0)" class="companyName4b485885-9a7c-42a0-ab4c-39a1d39ea276"><path id="id-4b485885-9a7c-42a0-ab4c-39a1d39ea276D6z1nYkh5" d="M31.09-7.21L31.09-7.21L31.25-6.46Q31.25-6.00 30.76-5.35L30.76-5.35Q29.47-3.67 26.63-1.49Q23.79 0.68 22.44 0.68Q21.09 0.68 20.33-0.11Q19.57-0.90 19.57-1.91L19.57-1.91Q19.57-3.13 22.11-7.27L22.11-7.27Q25.92-13.42 31.84-21.64L31.84-21.64Q30.59-20.35 25.20-14.69L25.20-14.69Q13.26-2.19 11.25-0.53L11.25-0.53Q10.92-0.25 10.28-0.25Q9.65-0.25 8.95-0.77Q8.24-1.29 8.24-1.93L8.24-1.93L8.24-2.03Q8.32-2.85 12.01-10.06Q15.70-17.27 18.20-21.52L18.20-21.52Q14.51-17.46 10.74-12.46L10.74-12.46Q3.57-2.97 0.25 3.71L0.25 3.71Q-0.04 4.34-0.47 4.34Q-0.90 4.34-1.72 4.12L-1.72 4.12Q-3.44 3.65-3.44 2.48L-3.44 2.48Q-3.44 1.78-0.57-2.55Q2.30-6.88 6.09-12.00Q9.88-17.13 13.95-21.88L13.95-21.88Q19.55-28.44 21.15-28.44L21.15-28.44Q21.41-28.44 21.64-28.31Q21.88-28.18 21.93-28.18Q21.99-28.18 22.05-28.24L22.05-28.24Q22.30-28.55 23.06-28.55Q23.81-28.55 24.52-28.26Q25.23-27.97 25.23-27.60L25.23-27.60Q25.23-27.36 23.28-23.87L23.28-23.87Q16.74-12.27 14.49-7.93L14.49-7.93Q16.64-10.53 20.63-14.82Q24.63-19.12 29.02-23.40L29.02-23.40Q34.75-28.95 35.86-28.95L35.86-28.95Q36.31-28.95 36.99-28.75L36.99-28.75Q38.20-28.40 39.32-28.40L39.32-28.40Q39.63-28.34 39.85-28.13Q40.08-27.93 40.08-27.71Q40.08-27.50 39.96-27.36L39.96-27.36Q33.61-18.93 29.26-12.48Q24.90-6.04 23.89-3.77L23.89-3.77Q25.94-4.20 30-8.67L30-8.67Q30.18-8.91 30.25-8.98Q30.33-9.06 30.39-9.14L30.39-9.14Q30.72-9.53 30.90-8.65L30.90-8.65Q30.98-8.14 31.01-7.94Q31.04-7.73 31.06-7.51Q31.09-7.29 31.09-7.21Z M44.63-25.04L45.55-25.16L46.35-24.96Q46.52-24.96 46.66-24.79Q46.80-24.61 46.80-24.45Q46.80-24.30 46.39-23.61Q45.98-22.93 45.42-22.06Q44.86-21.19 44.82-21.11L44.82-21.11Q46.35-21.23 46.98-21.23Q47.62-21.23 47.85-21.14Q48.09-21.05 48.39-20.65Q48.69-20.25 48.95-20.05Q49.20-19.84 49.20-19.43Q49.20-19.02 48.70-18.74Q48.20-18.46 47.64-18.40L47.64-18.40Q43.11-17.95 42.64-17.93L42.64-17.93Q41.05-15.51 38.21-10.38Q35.37-5.25 35.20-3.96L35.20-3.96Q35.12-3.38 35.12-3.01L35.12-3.01Q35.12-2.25 35.92-2.25Q36.72-2.25 37.70-2.86Q38.67-3.48 39.49-4.20L39.49-4.20Q41.68-6.15 41.84-6.15L41.84-6.15Q42.34-6.15 42.34-4.39L42.34-4.39Q42.34-3.44 41.46-2.68L41.46-2.68Q39.49-0.98 38.14-0.12Q36.80 0.74 35.45 0.74L35.45 0.74Q35.16 0.74 34.90 0.68L34.90 0.68Q33.34 0.39 32.61-0.46Q31.88-1.31 31.88-2.75Q31.89-4.20 32.74-6.26Q33.59-8.32 34.88-10.64L34.88-10.64Q36.99-14.43 39.10-17.75L39.10-17.75L38.36-17.66Q36.09-17.40 35.72-17.40L35.72-17.40L35.55-17.40Q34.98-17.40 34.45-17.63Q33.93-17.85 33.93-18.18Q33.93-18.52 34.21-18.83Q34.49-19.14 34.55-19.32L34.55-19.32Q34.69-19.75 35.58-20.27Q36.46-20.80 36.91-20.83Q37.36-20.86 37.78-20.88Q38.20-20.90 38.72-20.92Q39.24-20.94 39.51-20.96L39.51-20.96L41.27-21.04Q42.91-23.50 43.53-24.20Q44.14-24.90 44.24-24.97Q44.34-25.04 44.63-25.04L44.63-25.04Z M54.14-14.61L54.14-14.61Q54.14-13.32 53.10-12.34Q52.05-11.37 50.72-11.37L50.72-11.37Q50.29-11.37 50.16-11.57Q50.02-11.78 50.02-12.11Q50.02-12.44 50.10-12.75L50.10-12.75Q49.39-12.52 48.54-12.03Q47.68-11.54 46.43-10.59Q45.18-9.63 45.18-9.16L45.18-9.16Q45.18-9.00 45.63-9.00Q46.09-9.00 47.05-9.33Q48.01-9.65 48.39-9.65Q48.77-9.65 48.89-9.61L48.89-9.61Q49.14-9.47 49.43-9.01Q49.73-8.55 49.73-8.29Q49.73-8.03 49.22-7.60Q48.71-7.17 48.07-6.94Q47.42-6.72 47.21-6.60L47.21-6.60Q43.09-4.30 43.09-3.44L43.09-3.44Q43.09-1.91 45.68-1.91L45.68-1.91Q47.34-1.91 49.02-2.97L49.02-2.97Q50.45-3.87 51.59-4.79Q52.73-5.72 53.04-5.94Q53.34-6.15 53.50-6.15L53.50-6.15Q54.00-6.15 54.00-5.02Q54.00-3.89 53.87-3.53Q53.73-3.16 53.09-2.64L53.09-2.64Q48.91 0.76 45.18 0.76L45.18 0.76Q43.18 0.76 41.99 0.21L41.99 0.21Q39.80-0.78 39.80-2.83L39.80-2.83Q39.80-5.53 43.54-6.91L43.54-6.91Q42.79-7.25 42.58-7.76Q42.36-8.28 42.36-9.42Q42.36-10.57 43.43-11.85Q44.49-13.13 46.04-13.95L46.04-13.95Q49.47-15.80 52.17-15.80L52.17-15.80Q52.81-15.80 53.48-15.49Q54.14-15.18 54.14-14.61Z M66.10-4.34Q67.11-4.98 67.40-5.22Q67.70-5.47 68.09-5.80Q68.48-6.13 68.73-6.13L68.73-6.13Q69.12-6.13 69.12-5.24Q69.12-4.36 68.25-3.33Q67.38-2.30 66.09-1.59Q64.80-0.88 63.34-0.35L63.34-0.35Q60.43 0.72 58.39 0.72Q56.35 0.72 54.71-0.62Q53.07-1.95 53.07-4.11Q53.07-6.27 54.14-8.43Q55.21-10.59 56.90-12.22Q58.59-13.85 60.83-14.86Q63.07-15.88 65.25-15.88L65.25-15.88Q66.31-15.88 67.15-15.27Q67.99-14.67 67.99-13.61Q67.99-12.56 66.94-11.08Q65.90-9.61 64.82-9.61L64.82-9.61Q63.57-9.61 63.57-10.80L63.57-10.80Q63.57-11.11 64.16-11.91Q64.75-12.71 64.75-13.00Q64.75-13.28 64.53-13.28L64.53-13.28Q63.46-13.28 62.23-12.54Q61.00-11.80 59.99-10.98Q58.98-10.16 58.09-9.14L58.09-9.14Q56.13-6.93 56.13-4.55L56.13-4.55Q56.13-3.59 56.75-2.90Q57.36-2.21 58.82-2.21Q60.27-2.21 61.74-2.55Q63.20-2.89 64.15-3.29Q65.10-3.69 66.10-4.34Z M85.18-5.76L85.18-5.76Q85.31-4.86 85.31-4.35Q85.31-3.83 85.13-3.45Q84.94-3.07 84.31-2.37Q83.67-1.68 82.79-0.98L82.79-0.98Q80.64 0.72 78.40 0.72L78.40 0.72Q75.18 0.72 75.18-2.13L75.18-2.13Q75.18-4.61 79.49-12.01L79.49-12.01Q79.65-12.29 79.71-12.40L79.71-12.40Q78.20-11.35 73.96-6.65Q69.71-1.95 68.30 0L68.30 0Q68.18 0.18 67.71 0.39Q67.25 0.61 66.98 0.61Q66.72 0.61 66.42 0.44Q66.11 0.27 66.04 0.27L66.04 0.27Q65.78 0.27 65.78 0.11Q65.78-0.06 66.47-1.69Q67.17-3.32 68.30-5.74L68.30-5.74Q71.41-12.42 77.54-23.13L77.54-23.13Q79.69-26.88 80.90-28.44L80.90-28.44Q81.76-29.55 83.79-29.55L83.79-29.55Q84.22-29.55 84.28-29.30Q84.34-29.04 84.34-28.75Q84.34-28.46 84.22-28.16L84.22-28.16L82.13-24.90Q75.92-15.21 72.77-8.85L72.77-8.85Q75.82-12.56 78.69-14.57L78.69-14.57Q80.47-15.84 81.36-15.84Q82.25-15.84 82.97-15.56Q83.69-15.27 83.69-14.20L83.69-14.20Q83.69-13.81 82.42-11.31L82.42-11.31Q78.61-3.81 78.61-2.98Q78.61-2.15 79.30-2.15L79.30-2.15Q80.29-2.15 82.36-4.08L82.36-4.08Q83.93-5.55 84.34-5.96L84.34-5.96Q84.57-6.13 84.77-6.13L84.77-6.13Q85.14-6.13 85.18-5.76Z"/></g></svg>